<svg width="77" height="80" viewBox="0 0 77 80" fill="none" xmlns="http://www.w3.org/2000/svg">
<path d="M32.8774 22.1943C32.6746 22.2734 32.4972 22.1152 32.3958 21.9043C32.2944 21.6935 32.2944 21.4826 32.3958 21.4035C32.5985 21.2717 32.6746 21.3244 32.8774 21.6144C32.9788 21.9043 32.9788 22.1152 32.8774 22.1943ZM64.7915 61.3374C65.552 60.1249 67.6813 56.4083 68.4417 54.3259C69.3036 52.4017 69.988 50.3984 70.571 48.3161C72.1173 42.1744 72.1173 35.901 70.7738 30.2601C69.4304 24.9093 66.718 19.9011 62.0285 13.9703C60.9638 12.6787 60.5836 11.6243 60.7864 10.6227C60.8878 10.3327 60.8878 10.2009 60.7864 10.1219C60.685 10.0428 60.4062 10.0428 59.8232 10.28C57.0348 11.5716 55.1083 14.3393 53.1057 17.2652C51.7622 19.1894 50.5201 21.1136 48.7711 22.8269C47.1234 24.5402 43.9548 26.7544 42.1297 25.7528C41.4453 25.4101 41.1664 24.4084 41.1664 22.7478V22.5897C43.3718 20.9554 44.6392 18.2404 44.6392 17.107L44.5378 16.6853L44.335 16.5271C43.4732 16.1054 40.9637 16.817 39.5188 17.3969L39.4174 17.476L39.316 17.3179C38.0739 15.7363 37.1106 15.0246 36.629 15.1828C36.2488 15.3146 35.8685 15.8154 35.7671 18.0296V18.1086L35.6658 18.1877C34.8039 18.5567 34.1195 18.8994 33.4604 19.3212C31.9141 20.3228 31.3311 20.9554 31.3311 21.6671C31.4325 22.247 31.9141 23.0378 35.463 23.7495L35.5644 23.8285V23.9867C35.6658 24.4875 35.5644 24.9883 35.463 25.4101C35.2602 25.7 35.1841 25.8318 34.8799 25.8318C32.2944 26.1218 29.9876 25.1201 27.7569 22.8269C26.2107 21.1663 24.8672 19.2421 23.6251 17.476C21.5972 14.4711 19.6707 11.6243 16.7049 10.1746C16.3246 10.0428 15.9444 9.96371 15.843 10.0428C15.7416 10.1746 15.7416 10.3327 15.843 10.5963C16.0458 11.5189 15.6402 12.5996 14.6009 13.8912C10.0888 19.6111 7.2751 24.8302 5.85557 30.3129C4.68953 34.583 4.3093 41.8845 6.05836 48.2897C6.64138 50.4248 7.30045 52.4281 8.18766 54.2996C8.94812 56.3028 10.976 59.9404 11.6351 61.1002V61.3901C7.70603 56.5401 0.684417 44.8367 3.95441 29.8384C5.1965 24.1185 8.4665 18.8467 13.1814 12.995C14.3474 11.4398 14.9051 8.64575 17.4146 9.77919C18.1751 10.2009 19.0623 10.6227 19.7214 11.0708C25.1207 7.43324 31.4579 5.42996 38.0992 5.42996C44.7406 5.42996 51.2806 7.48596 56.756 11.2817C57.2376 10.9126 57.7192 10.57 58.4036 10.2009C61.6736 8.35581 61.5722 10.5436 63.6001 13.0477C68.4924 19.1103 71.585 24.1976 72.7257 29.8384C75.8943 45.6274 68.9741 57.0409 64.9183 61.5219L64.8169 61.3111L64.7915 61.3374ZM38.0485 72.6718C29.2018 72.6718 20.9381 69.166 14.7783 62.8135C14.1193 62.1809 13.4349 61.4692 12.8518 60.7575C11.99 59.4132 10.4437 56.9618 9.37905 53.8251C8.3144 50.6093 7.73138 46.8927 9.27766 46.1283C10.4437 45.7065 11.6858 46.84 13.4095 49.8449C13.6883 50.4248 13.8911 50.7674 13.9925 51.1365L14.0939 51.3473L14.4742 51.69H14.5756C14.753 51.5582 14.677 51.2683 14.5756 50.9783C14.3728 50.5566 14.1953 50.2666 13.8911 49.634C12.4463 46.0755 10.5197 38.985 13.4095 37.6407C13.8911 37.4298 14.3728 37.4298 14.9558 37.6407C16.7809 38.3524 18.7074 41.4891 19.5693 43.4924C19.8481 44.2831 19.9495 44.6258 20.0509 44.9948V45.1266L20.3297 45.5484H20.4311C20.6339 45.4693 20.6339 45.2057 20.5325 44.9158C20.4311 44.4149 20.3297 44.2041 20.2537 43.4133C20.0509 41.4891 20.4565 39.4067 21.9014 38.985C23.8279 38.4841 25.4502 40.5665 26.3374 42.5434C26.9204 43.6769 27.3007 45.1793 27.402 46.3919V46.8136C27.402 47.4462 27.1993 47.7362 26.7176 48.0261C26.4388 48.1843 26.1346 48.3161 25.8558 48.3951C25.5769 48.5269 25.2727 48.606 25.1714 48.6851C24.5883 48.975 24.4109 49.4759 24.4109 49.8976C24.4109 50.2403 24.5123 50.5302 24.6137 50.8202C24.8925 51.5319 25.3741 51.9009 25.6783 52.1118C27.1232 51.031 29.5313 50.1875 31.5592 51.1892C34.449 52.7707 37.0346 60.0458 37.9978 69.4033C37.9978 70.194 38.0992 70.6158 38.0992 71.1166L38.2006 71.5383L38.302 71.6174L38.5048 71.5383L38.6062 71.1166C38.6062 70.6158 38.6062 70.194 38.7076 69.4033C39.6709 60.0458 42.2564 52.7707 45.1462 51.1892C47.1741 50.1875 49.4808 51.0574 50.9257 52.1118C51.306 51.9009 51.6862 51.5319 51.9904 50.8202C52.0918 50.5302 52.2692 50.2403 52.2692 49.8976C52.2692 49.4759 52.0664 48.975 51.5088 48.6851C51.306 48.606 51.1285 48.5269 50.8243 48.3951C50.5455 48.3161 50.1399 48.1843 49.9625 48.0261C49.3794 47.7362 49.2781 47.4462 49.2781 46.7345V46.3919C49.3795 45.1003 49.6583 43.756 50.1399 42.5434C51.2046 40.1975 53.2325 38.6159 54.652 38.985C56.1983 39.4067 56.5785 41.4891 56.2997 43.4133C56.1983 44.2041 56.0969 44.4149 56.0208 44.9158C55.9194 45.2057 55.9194 45.4956 56.1222 45.5484H56.325L56.5278 45.1266L56.6292 44.9948C56.7306 44.5731 56.7306 44.2041 57.1108 43.4924C57.8713 41.6472 60.7611 36.5599 63.2706 37.6407C63.7522 37.8515 64.1325 38.2733 64.4366 38.8532C65.3999 41.41 63.8536 46.84 62.7129 49.634C62.4341 50.2666 62.3327 50.5566 62.0285 50.9783C61.9271 51.2683 61.8257 51.5582 62.0285 51.69H62.2313L62.5101 51.3473L62.6115 51.1365C62.8143 50.7674 62.8904 50.4248 63.2959 49.8449C64.9436 46.84 66.2871 45.7065 67.3517 46.1283C68.9741 46.919 68.4164 50.6357 67.3517 53.8251C66.8701 55.1694 66.2871 56.461 65.7041 57.4626C64.538 59.3868 63.1185 61.1793 61.4708 62.8135C55.3111 69.166 47.0474 72.6718 38.2006 72.6718M40.8876 18.7676C40.989 18.4777 41.4706 18.3459 41.6481 18.5567C41.7495 18.7676 41.5467 19.6375 41.1664 19.8483C40.8876 19.3475 40.7862 19.0576 40.8876 18.7676ZM36.8318 20.3228C36.9332 19.9011 37.4148 19.4002 38.0739 19.4002C38.8344 19.4002 39.1385 19.9538 39.2399 20.4019C39.2399 20.6918 39.1385 20.9027 38.8597 20.9027C38.5809 20.9818 37.6176 20.9818 37.136 20.8236C36.8571 20.7445 36.7558 20.6127 36.8571 20.3228M34.1702 42.8861C33.5872 42.5962 33.0041 42.4644 32.1423 42.5962C30.3172 42.728 29.2525 44.7312 28.9737 47.6571C29.8355 46.1546 31.103 45.0212 32.7253 45.0212C35.2348 45.1003 36.4769 47.4462 37.5416 52.6653C38.0232 55.1694 38.226 57.1727 38.302 59.2287C38.4034 53.4561 39.8483 48.7905 42.3325 42.8861C44.1576 38.7477 45.8813 32.527 44.259 29.1794C43.4985 27.5452 42.9155 27.1761 42.0536 26.5435C43.2197 26.8862 44.3604 27.2552 46.0081 28.0987C48.7964 29.5221 50.9004 28.8895 52.0664 25.6737C53.7141 21.3772 54.3732 18.4777 55.9194 15.9736C56.8827 14.3393 57.6432 13.1795 59.012 12.1251C59.2908 11.8352 59.595 11.7034 59.8739 11.7561C60.0766 11.9143 59.9753 12.1251 60.0766 12.4151C60.178 12.8368 60.5583 13.4695 61.1413 14.2602C63.1692 16.7643 65.9576 21.7462 67.301 26.5435C69.1262 33.2387 68.3657 40.0393 66.4392 43.8877C66.2364 44.1777 66.1604 44.1777 66.2364 43.8877C68.3657 35.901 66.9969 26.4644 62.1045 18.1877C63.2706 26.3326 61.5215 34.1086 59.0373 38.5369H58.9359C61.7243 30.6819 61.9271 17.5551 59.4176 14.2602C59.0373 13.8385 58.8346 13.8385 58.5557 14.1284C56.832 15.9208 55.4885 20.6918 54.7027 25.1201C53.5367 32.1053 51.8129 34.1086 50.2667 34.4776C49.4048 34.6094 48.619 34.3985 48.0613 33.845C47.3769 33.2123 46.7178 32.0526 46.1348 30.84C46.8953 34.9784 46.1348 37.9043 44.7913 40.6192C44.5125 41.1991 44.4111 41.7 44.5125 41.8317C44.6139 41.9108 44.9941 41.8317 45.6785 41.4891C46.5404 40.9883 47.1234 41.0673 47.7064 41.8317C48.2895 42.7016 48.6697 44.6785 48.7711 46.9718C48.8725 48.3951 48.8725 48.7642 49.7343 49.0278C50.6976 49.3177 51.7622 49.6867 51.5594 50.7411C50.4948 50.3193 48.7711 50.0294 47.7064 49.9503C47.605 48.4479 46.5404 46.3128 44.4364 46.5236C41.7495 46.8927 40.0004 51.7427 39.1385 57.5154C38.7583 60.0722 38.6569 62.5763 38.4541 65.4494C38.0739 62.6554 38.0739 60.0985 37.6937 57.5154C36.7304 51.7164 35.0827 46.8663 32.3958 46.5236C30.2665 46.3128 29.2272 48.3688 29.1258 49.9503C28.1625 49.9503 26.3374 50.3193 25.2727 50.7411C24.9939 49.6867 26.236 49.2386 27.0979 49.0278C27.9597 48.8169 27.9597 48.1843 28.0611 46.9718C28.1625 44.7576 28.5427 42.6225 29.1258 41.8317C29.6074 41.1991 30.1904 40.9883 31.1537 41.4891C31.8381 41.8317 32.1169 41.9108 32.2183 41.779C32.4211 41.7 32.2183 41.1464 31.9395 40.6983C30.8748 39.1431 29.8102 36.6917 29.8102 34.2667C29.8102 33.555 29.1258 33.7659 28.8469 33.9768C28.3653 34.3458 27.6048 34.6885 26.7176 34.4776C24.5883 34.0558 23.2448 31.7626 22.1041 25.1201C21.3437 20.6918 19.9748 15.9208 18.2511 14.1811C17.9723 13.8385 17.7695 13.8385 17.3893 14.2602C14.8797 17.6078 15.0825 30.6819 17.8709 38.5369H17.7695C15.26 34.1086 13.4349 26.2536 14.7023 18.1086C9.4044 27.0443 8.54254 36.3754 10.5704 43.8877C10.5704 44.1777 10.4691 44.1777 10.3677 43.8877C8.44115 39.9603 7.68068 33.2387 9.5058 26.5435C10.8493 21.7462 13.5363 16.7643 15.5642 14.2602C16.2232 13.4695 16.6288 12.6787 16.7049 12.4151C16.8063 12.1251 16.7049 11.9933 16.9076 11.8352C17.009 11.7034 17.3893 11.9143 17.7695 12.1251C19.0116 13.1795 19.8735 14.3393 20.8367 15.9736C22.383 18.4777 23.1434 21.4035 24.6897 25.6737C25.8304 28.8895 27.9597 29.5221 30.7481 28.0987C32.6746 27.0971 33.6379 26.7544 35.2602 26.4644C35.7418 26.3854 36.0206 26.3326 36.0206 26.1745C36.122 26.0427 36.122 25.8318 36.122 25.2519C36.122 25.0411 36.122 24.8302 36.2234 24.6193H36.4262C36.5276 25.1992 36.629 25.7 36.7051 26.3326C36.8064 26.5435 36.7051 26.6226 36.5023 26.7544C34.7785 27.3343 33.6125 27.9669 32.852 29.2585C31.0269 32.3161 33.2323 39.7494 34.1955 42.9125M65.4506 11.4135C58.0741 4.05929 48.4669 0 38.2767 0C28.0865 0 18.4539 4.05929 11.2549 11.4135C4.05581 18.794 0 28.6259 0 39.064C0 49.5022 4.05581 59.255 11.2549 66.6883C18.4793 74.0424 28.0865 78.1017 38.2767 78.1017C48.4669 78.1017 58.0741 74.0424 65.2985 66.6883C72.5989 59.255 76.5534 49.4759 76.5534 39.064C76.5534 28.6522 72.5989 18.794 65.2985 11.4398" fill="#101010"/>
<path d="M61.5498 78.5522H62.2342V77.1288H62.7158C62.9946 77.1288 63.1974 77.2079 63.3749 77.2869C63.5777 77.4187 63.6537 77.6296 63.6537 78.0777V78.4994H63.7551V78.5785H64.3381L64.2367 78.4994V77.7878L64.0339 77.2079C63.9325 77.0497 63.7551 76.9179 63.4509 76.9179L63.9325 76.707C64.1353 76.5489 64.3128 76.338 64.3128 75.9953C64.3128 75.5736 64.11 75.2836 63.7298 75.1255C63.527 75.0464 63.1467 74.9937 62.7665 74.9937H61.5244V78.5522H61.5498ZM63.3749 76.628C63.1721 76.707 62.9946 76.707 62.7158 76.707H62.2342V75.4154H62.7158C63.096 75.4154 63.2988 75.4945 63.4763 75.5736C63.5777 75.6527 63.6791 75.8635 63.6791 76.0744C63.6791 76.3644 63.5777 76.5752 63.4002 76.628M65.1239 74.4929C64.5409 73.8603 63.7805 73.5703 62.9186 73.5703C62.0567 73.5703 61.2709 73.8603 60.6119 74.4929C60.0288 75.1255 59.75 75.9163 59.75 76.7861C59.75 77.7087 60.0288 78.4204 60.6119 79.0793C61.2963 79.712 61.9553 80.0019 62.9186 80.0019C63.7805 80.0019 64.5663 79.712 65.1239 79.0793C65.707 78.4467 66.0872 77.735 66.0872 76.7861C66.0872 75.8372 65.707 75.1255 65.1239 74.4929ZM64.8451 74.7828C65.3267 75.3627 65.6056 75.9953 65.6056 76.7861C65.6056 77.5769 65.3267 78.2095 64.8451 78.7894C64.2621 79.2902 63.6791 79.5802 62.9186 79.5802C62.1581 79.5802 61.4737 79.2902 60.8907 78.7894C60.4091 78.2095 60.1302 77.5769 60.1302 76.7861C60.1302 75.9953 60.4091 75.3627 60.9921 74.7828C61.4737 74.282 62.1581 73.9921 62.9186 73.9921C63.6791 73.9921 64.2621 74.282 64.8451 74.7828Z" fill="#101010"/>
</svg>
