<?xml version="1.0" standalone="no"?>
<!DOCTYPE svg PUBLIC "-//W3C//DTD SVG 20010904//EN"
 "http://www.w3.org/TR/2001/REC-SVG-20010904/DTD/svg10.dtd">
<svg version="1.0" xmlns="http://www.w3.org/2000/svg"
 width="190.000000pt" height="188.000000pt" viewBox="0 0 190.000000 188.000000"
 preserveAspectRatio="xMidYMid meet">

<g transform="translate(0.000000,188.000000) scale(0.100000,-0.100000)"
fill="#000000" stroke="none">
<path d="M1360 1390 l0 -110 110 0 110 0 0 110 0 110 -110 0 -110 0 0 -110z"/>
<path d="M1033 1405 c-18 -19 -33 -40 -33 -46 0 -6 -13 -24 -30 -39 -16 -15
-30 -33 -30 -39 0 -15 66 -81 81 -81 6 0 24 -13 39 -30 15 -16 33 -30 40 -30
16 0 40 25 40 42 0 8 9 20 20 28 11 8 20 21 20 28 0 8 14 27 31 43 27 26 29
30 16 44 -9 8 -22 15 -29 15 -8 0 -20 9 -28 20 -8 11 -21 20 -28 20 -8 0 -27
14 -42 30 -15 17 -30 30 -32 29 -1 0 -18 -16 -35 -34z"/>
<path d="M500 1070 l0 -110 110 0 110 0 0 110 0 110 -110 0 -110 0 0 -110z"/>
<path d="M1280 1070 c0 -5 -7 -10 -16 -10 -9 0 -29 -13 -44 -30 -15 -16 -33
-30 -39 -30 -7 0 -23 -11 -37 -25 l-25 -25 40 -39 c23 -22 41 -44 41 -51 0
-19 48 -60 70 -60 12 0 39 18 60 40 21 22 44 40 50 40 17 0 40 26 40 44 0 9
-4 16 -10 16 -5 0 -10 7 -10 16 0 8 -18 33 -40 54 -22 21 -40 46 -40 54 0 9
-8 16 -20 16 -11 0 -20 -4 -20 -10z"/>
<path d="M500 800 l0 -100 110 0 110 0 0 100 0 100 -110 0 -110 0 0 -100z"/>
<path d="M760 800 l0 -100 110 0 110 0 0 100 0 100 -110 0 -110 0 0 -100z"/>
<path d="M500 530 l0 -110 110 0 110 0 0 110 0 110 -110 0 -110 0 0 -110z"/>
<path d="M760 530 l0 -110 110 0 110 0 0 110 0 110 -110 0 -110 0 0 -110z"/>
<path d="M1040 530 l0 -110 110 0 110 0 0 110 0 110 -110 0 -110 0 0 -110z"/>
</g>
</svg>
