<svg xmlns="http://www.w3.org/2000/svg" viewBox="0 0 54 53" width="64" height="64">
    <rect width="54" height="53" fill="white" />
    <path d="M0 16H11V27H0V16Z" fill="black" />
    <path d="M0 29H11V40H0V29Z" fill="black" />
    <path d="M0 42H11V53H0V42Z" fill="black" />
    <path d="M13 42H24V53H13V42Z" fill="black" />
    <path d="M13 29H24V40H13V29Z" fill="black" />
    <path d="M43 0H54V11H43V0Z" fill="black" />
    <path d="M29.0708 3L37.4973 10.0707L30.4266 18.4972L22.0001 11.4265L29.0708 3Z" fill="black" />
    <path d="M26 42H37V53H26V42Z" fill="black" />
    <path d="M39.4263 20L46.4969 28.4265L38.0704 35.4972L30.9998 27.0707L39.4263 20Z" fill="black" />
</svg>
